<svg width="384" height="384" viewBox="0 0 384 384" fill="none" xmlns="http://www.w3.org/2000/svg">
<circle cx="192" cy="32" r="32" fill="url(#paint0_linear_838_77)"/>
<circle cx="192" cy="352" r="32" fill="url(#paint1_linear_838_77)"/>
<circle cx="32" cy="192" r="32" fill="url(#paint2_linear_838_77)"/>
<circle cx="78.8628" cy="78.863" r="32" transform="rotate(45 78.8628 78.863)" fill="white"/>
<circle cx="305.529" cy="78.8628" r="31.5" transform="rotate(135 305.529 78.8628)" stroke="white"/>
<circle cx="352" cy="192" r="32" fill="url(#paint3_linear_838_77)"/>
<circle cx="305.137" cy="305.137" r="32" transform="rotate(45 305.137 305.137)" fill="white"/>
<circle cx="79.2549" cy="305.137" r="31.5" transform="rotate(135 79.2549 305.137)" stroke="white"/>
<line x1="193" y1="64" x2="193" y2="320" stroke="white" stroke-width="2"/>
<line x1="320" y1="193" x2="64" y2="193" stroke="white" stroke-width="2"/>
<line x1="281.312" y1="282.726" x2="100.293" y2="101.707" stroke="white" stroke-width="2"/>
<line x1="100.293" y1="281.312" x2="281.312" y2="100.293" stroke="white" stroke-width="2"/>
<defs>
<linearGradient id="paint0_linear_838_77" x1="192" y1="1.99504e-06" x2="143.269" y2="46.5888" gradientUnits="userSpaceOnUse">
<stop stop-color="#B3FF68"/>
<stop offset="1" stop-color="#39C7AB"/>
</linearGradient>
<linearGradient id="paint1_linear_838_77" x1="192" y1="320" x2="143.269" y2="366.589" gradientUnits="userSpaceOnUse">
<stop stop-color="#B3FF68"/>
<stop offset="1" stop-color="#39C7AB"/>
</linearGradient>
<linearGradient id="paint2_linear_838_77" x1="32" y1="160" x2="-16.7308" y2="206.589" gradientUnits="userSpaceOnUse">
<stop stop-color="#B3FF68"/>
<stop offset="1" stop-color="#39C7AB"/>
</linearGradient>
<linearGradient id="paint3_linear_838_77" x1="352" y1="160" x2="303.269" y2="206.589" gradientUnits="userSpaceOnUse">
<stop stop-color="#B3FF68"/>
<stop offset="1" stop-color="#39C7AB"/>
</linearGradient>
</defs>
</svg>
