<svg width="186" height="225" viewBox="0 0 186 225" fill="none" xmlns="http://www.w3.org/2000/svg">
<path d="M184.494 1.84629C184.409 0.744983 183.448 -0.0789783 182.346 0.00591576L164.4 1.38935C163.298 1.47424 162.474 2.43584 162.559 3.53715C162.644 4.63845 163.606 5.46241 164.707 5.37752L180.66 4.1478L181.889 20.1005C181.974 21.2018 182.936 22.0257 184.037 21.9408C185.138 21.8559 185.962 20.8943 185.878 19.793L184.494 1.84629ZM128.955 64.4901L127.436 63.1888L128.955 64.4901ZM50.5035 67.076L49.0978 65.6533L50.5035 67.076ZM3.40569 116.423L51.9092 68.4987L49.0978 65.6533L0.594311 113.577L3.40569 116.423ZM82.6746 65.0476L93.1465 71.5543L95.2576 68.1568L84.7856 61.65L82.6746 65.0476ZM130.473 65.7915L184.019 3.30134L180.981 0.698662L127.436 63.1888L130.473 65.7915ZM93.1465 71.5543C105.306 79.1095 121.159 76.6619 130.473 65.7915L127.436 63.1888C119.406 72.5599 105.74 74.6698 95.2576 68.1568L93.1465 71.5543ZM51.9092 68.4987C60.1328 60.3733 72.855 58.9462 82.6746 65.0476L84.7856 61.65C73.395 54.5724 58.6372 56.2279 49.0978 65.6533L51.9092 68.4987Z" fill="white"/>
<rect x="30" y="175.5" width="45" height="49" rx="4" fill="#4B4B4B"/>
<rect x="79" y="127.5" width="45" height="97" rx="4" fill="#4B4B4B"/>
<rect x="128" y="83" width="45" height="141.5" rx="4" fill="url(#paint0_linear_849_19)"/>
<defs>
<linearGradient id="paint0_linear_849_19" x1="150.5" y1="83" x2="90.4678" y2="101.252" gradientUnits="userSpaceOnUse">
<stop stop-color="#B3FF68"/>
<stop offset="1" stop-color="#39C7AB"/>
</linearGradient>
</defs>
</svg>
