<svg width="397" height="348" viewBox="0 0 397 348" fill="none" xmlns="http://www.w3.org/2000/svg">
<path fill-rule="evenodd" clip-rule="evenodd" d="M78.6054 20.0018C74.6852 21.3592 72.6076 25.6375 73.9649 29.5577C75.0959 32.824 73.8024 36.3898 71.1848 38.6471C70.8638 38.924 70.5474 39.2052 70.2354 39.4906C67.6847 41.8249 63.9898 42.6874 60.8795 41.177C57.1469 39.3644 52.6517 40.9209 50.8391 44.6535L48.3116 49.8585C46.499 53.591 48.0555 58.0862 51.788 59.8988C54.8983 61.4091 56.5053 64.8463 56.248 68.2943C56.2166 68.716 56.1913 69.1388 56.1722 69.5623C56.0168 73.0154 54.0143 76.2369 50.748 77.3678C46.8278 78.7252 44.7502 83.0035 46.1076 86.9237L48.0018 92.3943C49.3592 96.3145 53.6375 98.3921 57.5577 97.0347C60.824 95.9038 64.3898 97.1972 66.6472 99.8148C66.924 100.136 67.2052 100.452 67.4907 100.764C69.8251 103.315 70.6875 107.01 69.1771 110.12C67.3646 113.853 68.9211 118.348 72.6537 120.161L77.8585 122.688C81.5911 124.501 86.0864 122.944 87.899 119.212C89.4093 116.101 92.8465 114.494 96.2946 114.752C96.7163 114.783 97.1389 114.808 97.5624 114.827C101.015 114.983 104.237 116.985 105.368 120.252C106.725 124.172 111.004 126.249 114.924 124.892L120.394 122.998C124.315 121.64 126.392 117.362 125.035 113.442C123.904 110.176 125.197 106.61 127.815 104.353C128.136 104.076 128.452 103.794 128.764 103.509C131.315 101.175 135.01 100.312 138.121 101.822C141.853 103.635 146.349 102.079 148.161 98.3459L150.689 93.1414C152.501 89.4087 150.945 84.9133 147.212 83.1007C144.102 81.5902 142.494 78.153 142.752 74.7048C142.783 74.2832 142.808 73.8607 142.827 73.4373C142.983 69.9843 144.985 66.7628 148.252 65.6318C152.172 64.2745 154.249 59.9961 152.892 56.0759L150.998 50.6053C149.641 46.6851 145.362 44.6075 141.442 45.9649C138.176 47.0959 134.61 45.8024 132.353 43.1848C132.076 42.8638 131.795 42.5473 131.509 42.2354C129.175 39.6846 128.312 35.9896 129.823 32.8793C131.635 29.1466 130.079 24.6512 126.346 22.8386L121.141 20.3112C117.409 18.4986 112.913 20.0551 111.101 23.7878C109.59 26.8982 106.153 28.5052 102.705 28.248C102.283 28.2165 101.861 28.1912 101.437 28.1722C97.9843 28.0168 94.7628 26.0143 93.6319 22.748C92.2745 18.8278 87.9962 16.7502 84.076 18.1076L78.6054 20.0018ZM108.579 97.7224C123.062 92.7079 130.737 76.9026 125.722 62.4202C120.708 47.9379 104.903 40.2627 90.4203 45.2772C75.9379 50.2918 68.2628 66.0971 73.2773 80.5794C78.2918 95.0618 94.0971 102.737 108.579 97.7224Z" fill="white"/>
<path fill-rule="evenodd" clip-rule="evenodd" d="M254.433 72C244.304 72 236.094 80.2107 236.094 90.3392C236.094 98.7781 230.261 105.971 222.419 109.088C221.457 109.471 220.503 109.866 219.555 110.276C211.805 113.624 202.592 112.662 196.623 106.693C189.459 99.5292 177.845 99.5292 170.682 106.693L160.693 116.681C153.529 123.845 153.529 135.459 160.693 142.622C166.662 148.592 167.624 157.805 164.276 165.555C163.867 166.502 163.471 167.457 163.088 168.419C159.971 176.261 152.778 182.094 144.339 182.094C134.211 182.094 126 190.304 126 200.433V214.567C126 224.695 134.211 232.906 144.339 232.906C152.778 232.906 159.971 238.739 163.088 246.581C163.471 247.543 163.867 248.498 164.276 249.445C167.624 257.195 166.662 266.408 160.693 272.377C153.529 279.541 153.529 291.155 160.693 298.318L170.682 308.307C177.845 315.471 189.459 315.471 196.623 308.307C202.592 302.338 211.805 301.376 219.555 304.724C220.502 305.133 221.457 305.529 222.419 305.912C230.261 309.029 236.094 316.222 236.094 324.661C236.094 334.789 244.304 343 254.433 343H268.567C278.696 343 286.906 334.789 286.906 324.661C286.906 316.222 292.739 309.029 300.581 305.912C301.543 305.529 302.498 305.133 303.445 304.724C311.195 301.376 320.408 302.338 326.378 308.307C333.541 315.471 345.155 315.471 352.319 308.307L362.307 298.319C369.471 291.155 369.471 279.541 362.307 272.377C356.338 266.408 355.376 257.195 358.724 249.445C359.134 248.497 359.529 247.543 359.912 246.581C363.029 238.739 370.222 232.906 378.661 232.906C388.789 232.906 397 224.696 397 214.567V200.433C397 190.304 388.789 182.094 378.661 182.094C370.222 182.094 363.029 176.261 359.912 168.419C359.529 167.457 359.134 166.503 358.724 165.555C355.376 157.805 356.338 148.592 362.307 142.623C369.471 135.459 369.471 123.845 362.307 116.681L352.319 106.693C345.155 99.5291 333.541 99.5291 326.377 106.693C320.408 112.662 311.195 113.624 303.445 110.276C302.497 109.866 301.543 109.471 300.581 109.088C292.739 105.971 286.906 98.7781 286.906 90.3392C286.906 80.2107 278.696 72 268.567 72H254.433ZM261.5 275.25C298.917 275.25 329.25 244.917 329.25 207.5C329.25 170.083 298.917 139.75 261.5 139.75C224.083 139.75 193.75 170.083 193.75 207.5C193.75 244.917 224.083 275.25 261.5 275.25Z" fill="url(#paint0_linear_851_46)"/>
<rect x="50.1431" y="266.583" width="30" height="91" rx="8" transform="rotate(-27.664 50.1431 266.583)" fill="url(#paint1_linear_851_46)"/>
<rect x="22.2783" y="189.735" width="8" height="81" transform="rotate(-27.664 22.2783 189.735)" fill="#4A4A4A"/>
<rect x="5.31396" y="168.143" width="17" height="30" transform="rotate(-27.664 5.31396 168.143)" fill="#D9D9D9"/>
<rect x="12.3994" y="164.428" width="9" height="30" transform="rotate(-27.664 12.3994 164.428)" fill="#ACACAC"/>
<rect x="61.4927" y="275.311" width="2" height="66" rx="1" transform="rotate(-27.664 61.4927 275.311)" fill="white"/>
<rect x="68.5781" y="271.596" width="2" height="66" rx="1" transform="rotate(-27.664 68.5781 271.596)" fill="white"/>
<rect x="75.6636" y="267.882" width="2" height="66" rx="1" transform="rotate(-27.664 75.6636 267.882)" fill="white"/>
<defs>
<linearGradient id="paint0_linear_851_46" x1="261.5" y1="72" x2="55.1557" y2="269.274" gradientUnits="userSpaceOnUse">
<stop stop-color="#B3FF68"/>
<stop offset="1" stop-color="#39C7AB"/>
</linearGradient>
<linearGradient id="paint1_linear_851_46" x1="65.1431" y1="266.583" x2="25.3727" y2="279.117" gradientUnits="userSpaceOnUse">
<stop stop-color="#B3FF68"/>
<stop offset="1" stop-color="#39C7AB"/>
</linearGradient>
</defs>
</svg>
