<svg width="370" height="246" viewBox="0 0 370 246" fill="none" xmlns="http://www.w3.org/2000/svg">
<path fill-rule="evenodd" clip-rule="evenodd" d="M234.962 200.083C235.788 196.186 236.222 192.144 236.222 188C236.222 155.967 210.255 130 178.222 130C148.324 130 123.71 152.622 120.562 181.683C104.117 183.14 91.2222 196.953 91.2222 213.778C91.2222 231.574 105.649 246 123.444 246H178.222H201.18H204H235.819C248.499 246 258.778 235.721 258.778 223.042C258.778 210.362 248.499 200.083 235.819 200.083H234.962Z" fill="url(#paint0_linear_844_19)"/>
<circle cx="136" cy="49" r="29" fill="white"/>
<circle cx="314.5" cy="55.5" r="54.5" stroke="white" stroke-width="2"/>
<circle cx="307" cy="188" r="11.5" stroke="#D9D9D9"/>
<circle cx="34.5" cy="153.5" r="34" stroke="white"/>
<defs>
<linearGradient id="paint0_linear_844_19" x1="175" y1="130" x2="91" y2="246" gradientUnits="userSpaceOnUse">
<stop stop-color="#B3FF68"/>
<stop offset="1" stop-color="#39C7AB"/>
</linearGradient>
</defs>
</svg>
